<svg width="119" height="665" viewBox="0 0 119 665" fill="none" xmlns="http://www.w3.org/2000/svg">
<path d="M47.8333 0C47.8333 5.89104 52.609 10.6667 58.5 10.6667C64.391 10.6667 69.1667 5.89104 69.1667 0C69.1667 -5.89104 64.391 -10.6667 58.5 -10.6667C52.609 -10.6667 47.8333 -5.89104 47.8333 0ZM58.5 36.5L60.2349 37.495L60.5 37.0328V36.5H58.5ZM0 138.5L-1.73491 137.505L-3.45265 140.5H0V138.5ZM58.5 138.5H60.5V136.5H58.5V138.5ZM58.5 155.5H56.5V157.5H58.5V155.5ZM118.5 155.5L120.228 156.507L121.98 153.5H118.5V155.5ZM58.5 258.5L56.7718 257.493L56.5 257.96V258.5H58.5ZM58.5 269.5L60.2349 270.495L60.5 270.033V269.5H58.5ZM0 371.5L-1.73491 370.505L-3.45265 373.5H0V371.5ZM58.5 371.5H60.5V369.5H58.5V371.5ZM58.5 388.5H56.5V390.5H58.5V388.5ZM117.5 388.5L119.24 389.487L120.934 386.5H117.5V388.5ZM58.5 492.5L56.7604 491.513L56.5 491.972V492.5H58.5ZM58.5 503L60.2328 503.999L60.5 503.535V503H58.5ZM0 604.5L-1.7328 603.501L-3.46112 606.5H0V604.5ZM58.5 604.5H60.5V602.5H58.5V604.5ZM57.0858 665.914C57.8668 666.695 59.1332 666.695 59.9142 665.914L72.6421 653.186C73.4232 652.405 73.4232 651.139 72.6421 650.358C71.8611 649.577 70.5948 649.577 69.8137 650.358L58.5 661.672L47.1863 650.358C46.4052 649.577 45.1389 649.577 44.3579 650.358C43.5768 651.139 43.5768 652.405 44.3579 653.186L57.0858 665.914ZM56.5 0V36.5H60.5V0H56.5ZM56.7651 35.505L-1.73491 137.505L1.73491 139.495L60.2349 37.495L56.7651 35.505ZM0 140.5H58.5V136.5H0V140.5ZM56.5 138.5V155.5H60.5V138.5H56.5ZM58.5 157.5H118.5V153.5H58.5V157.5ZM116.772 154.493L56.7718 257.493L60.2282 259.507L120.228 156.507L116.772 154.493ZM56.5 258.5V269.5H60.5V258.5H56.5ZM56.7651 268.505L-1.73491 370.505L1.73491 372.495L60.2349 270.495L56.7651 268.505ZM0 373.5H58.5V369.5H0V373.5ZM56.5 371.5V388.5H60.5V371.5H56.5ZM58.5 390.5H117.5V386.5H58.5V390.5ZM115.76 387.513L56.7604 491.513L60.2396 493.487L119.24 389.487L115.76 387.513ZM56.5 492.5V503H60.5V492.5H56.5ZM56.7672 502.001L-1.7328 603.501L1.7328 605.499L60.2328 503.999L56.7672 502.001ZM0 606.5H58.5V602.5H0V606.5ZM56.5 604.5V664.5H60.5V604.5H56.5Z" fill="#D0D0D0"/>
</svg>
